<svg width="180" height="31" viewBox="0 0 180 31" fill="none" xmlns="http://www.w3.org/2000/svg">
<path d="M0.0227273 24V0.727272H15.4318V4.78409H4.94318V10.3295H14.4091V14.3864H4.94318V24H0.0227273ZM63.0511 24.2841C61.7254 24.2841 60.5246 23.9432 59.4489 23.2614C58.3807 22.572 57.5322 21.5606 56.9034 20.2273C56.2822 18.8864 55.9716 17.2424 55.9716 15.2955C55.9716 13.2955 56.2936 11.6326 56.9375 10.3068C57.5814 8.97348 58.4375 7.97727 59.5057 7.31818C60.5814 6.65152 61.7595 6.31818 63.0398 6.31818C64.017 6.31818 64.8314 6.48485 65.483 6.81818C66.142 7.14394 66.6723 7.55303 67.0739 8.04545C67.483 8.5303 67.7936 9.00758 68.0057 9.47727H68.1534V0.727272H72.983V24H68.2102V21.2045H68.0057C67.7784 21.6894 67.4564 22.1705 67.0398 22.6477C66.6307 23.1174 66.0966 23.5076 65.4375 23.8182C64.786 24.1288 63.9905 24.2841 63.0511 24.2841ZM64.5852 20.4318C65.3655 20.4318 66.0246 20.2197 66.5625 19.7955C67.108 19.3636 67.5246 18.7614 67.8125 17.9886C68.108 17.2159 68.2557 16.3106 68.2557 15.2727C68.2557 14.2348 68.1117 13.3333 67.8239 12.5682C67.536 11.803 67.1193 11.2121 66.5739 10.7955C66.0284 10.3788 65.3655 10.1705 64.5852 10.1705C63.7898 10.1705 63.1193 10.3864 62.5739 10.8182C62.0284 11.25 61.6155 11.8485 61.3352 12.6136C61.0549 13.3788 60.9148 14.2652 60.9148 15.2727C60.9148 16.2879 61.0549 17.1856 61.3352 17.9659C61.6231 18.7386 62.036 19.3447 62.5739 19.7841C63.1193 20.2159 63.7898 20.4318 64.5852 20.4318ZM79.9517 30.5455C79.3381 30.5455 78.7623 30.4962 78.2244 30.3977C77.6941 30.3068 77.2547 30.1894 76.9062 30.0455L77.9972 26.4318C78.5653 26.6061 79.0767 26.7008 79.5312 26.7159C79.9934 26.7311 80.3911 26.625 80.7244 26.3977C81.0653 26.1705 81.3419 25.7841 81.554 25.2386L81.8381 24.5L75.5767 6.54545H80.6676L84.2812 19.3636H84.4631L88.1108 6.54545H93.2358L86.4517 25.8864C86.1259 26.8258 85.6828 27.6439 85.1222 28.3409C84.5691 29.0455 83.8684 29.5871 83.0199 29.9659C82.1714 30.3523 81.1487 30.5455 79.9517 30.5455ZM102.96 24V21.0795L114.574 4.78409H102.938V0.727272H120.756V3.64773L109.131 19.9432H120.778V24H102.96ZM148.929 13.9091V24H144.088V6.54545H148.702V9.625H148.906C149.293 8.60985 149.94 7.80682 150.849 7.21591C151.759 6.61742 152.861 6.31818 154.156 6.31818C155.368 6.31818 156.425 6.58333 157.327 7.11364C158.228 7.64394 158.929 8.40151 159.429 9.38636C159.929 10.3636 160.179 11.5303 160.179 12.8864V24H155.338V13.75C155.346 12.6818 155.073 11.8485 154.52 11.25C153.967 10.6439 153.205 10.3409 152.236 10.3409C151.584 10.3409 151.009 10.4811 150.509 10.7614C150.016 11.0417 149.63 11.4508 149.349 11.9886C149.077 12.5189 148.937 13.1591 148.929 13.9091ZM171.949 24.3409C170.153 24.3409 168.608 23.9773 167.312 23.25C166.025 22.5152 165.032 21.4773 164.335 20.1364C163.638 18.7879 163.29 17.1932 163.29 15.3523C163.29 13.5568 163.638 11.9811 164.335 10.625C165.032 9.26894 166.013 8.21212 167.278 7.45454C168.551 6.69697 170.044 6.31818 171.756 6.31818C172.907 6.31818 173.979 6.50379 174.972 6.875C175.972 7.23864 176.843 7.78788 177.585 8.52273C178.335 9.25758 178.919 10.1818 179.335 11.2955C179.752 12.4015 179.96 13.697 179.96 15.1818V16.5114H165.222V13.5114H175.403C175.403 12.8144 175.252 12.197 174.949 11.6591C174.646 11.1212 174.225 10.7008 173.688 10.3977C173.157 10.0871 172.54 9.93182 171.835 9.93182C171.1 9.93182 170.449 10.1023 169.881 10.4432C169.32 10.7765 168.881 11.2273 168.562 11.7955C168.244 12.3561 168.081 12.9811 168.074 13.6705V16.5227C168.074 17.3864 168.233 18.1326 168.551 18.7614C168.877 19.3902 169.335 19.875 169.926 20.2159C170.517 20.5568 171.218 20.7273 172.028 20.7273C172.566 20.7273 173.059 20.6515 173.506 20.5C173.953 20.3485 174.335 20.1212 174.653 19.8182C174.972 19.5152 175.214 19.1439 175.381 18.7045L179.858 19C179.631 20.0758 179.165 21.0152 178.46 21.8182C177.763 22.6136 176.862 23.2348 175.756 23.6818C174.657 24.1212 173.388 24.3409 171.949 24.3409Z" fill="white"/>
<path d="M25.2557 24.3409C23.4905 24.3409 21.964 23.9659 20.6761 23.2159C19.3958 22.4583 18.4072 21.4053 17.7102 20.0568C17.0133 18.7008 16.6648 17.1288 16.6648 15.3409C16.6648 13.5379 17.0133 11.9621 17.7102 10.6136C18.4072 9.25758 19.3958 8.20454 20.6761 7.45454C21.964 6.69697 23.4905 6.31818 25.2557 6.31818C27.0208 6.31818 28.5436 6.69697 29.8239 7.45454C31.1117 8.20454 32.1042 9.25758 32.8011 10.6136C33.4981 11.9621 33.8466 13.5379 33.8466 15.3409C33.8466 17.1288 33.4981 18.7008 32.8011 20.0568C32.1042 21.4053 31.1117 22.4583 29.8239 23.2159C28.5436 23.9659 27.0208 24.3409 25.2557 24.3409ZM25.2784 20.5909C26.0814 20.5909 26.7519 20.3636 27.2898 19.9091C27.8277 19.447 28.233 18.8182 28.5057 18.0227C28.786 17.2273 28.9261 16.322 28.9261 15.3068C28.9261 14.2917 28.786 13.3864 28.5057 12.5909C28.233 11.7955 27.8277 11.1667 27.2898 10.7045C26.7519 10.2424 26.0814 10.0114 25.2784 10.0114C24.4678 10.0114 23.786 10.2424 23.233 10.7045C22.6875 11.1667 22.2746 11.7955 21.9943 12.5909C21.7216 13.3864 21.5852 14.2917 21.5852 15.3068C21.5852 16.322 21.7216 17.2273 21.9943 18.0227C22.2746 18.8182 22.6875 19.447 23.233 19.9091C23.786 20.3636 24.4678 20.5909 25.2784 20.5909ZM44.8807 24.3409C43.1155 24.3409 41.589 23.9659 40.3011 23.2159C39.0208 22.4583 38.0322 21.4053 37.3352 20.0568C36.6383 18.7008 36.2898 17.1288 36.2898 15.3409C36.2898 13.5379 36.6383 11.9621 37.3352 10.6136C38.0322 9.25758 39.0208 8.20454 40.3011 7.45454C41.589 6.69697 43.1155 6.31818 44.8807 6.31818C46.6458 6.31818 48.1686 6.69697 49.4489 7.45454C50.7367 8.20454 51.7292 9.25758 52.4261 10.6136C53.1231 11.9621 53.4716 13.5379 53.4716 15.3409C53.4716 17.1288 53.1231 18.7008 52.4261 20.0568C51.7292 21.4053 50.7367 22.4583 49.4489 23.2159C48.1686 23.9659 46.6458 24.3409 44.8807 24.3409ZM44.9034 20.5909C45.7064 20.5909 46.3769 20.3636 46.9148 19.9091C47.4527 19.447 47.858 18.8182 48.1307 18.0227C48.411 17.2273 48.5511 16.322 48.5511 15.3068C48.5511 14.2917 48.411 13.3864 48.1307 12.5909C47.858 11.7955 47.4527 11.1667 46.9148 10.7045C46.3769 10.2424 45.7064 10.0114 44.9034 10.0114C44.0928 10.0114 43.411 10.2424 42.858 10.7045C42.3125 11.1667 41.8996 11.7955 41.6193 12.5909C41.3466 13.3864 41.2102 14.2917 41.2102 15.3068C41.2102 16.322 41.3466 17.2273 41.6193 18.0227C41.8996 18.8182 42.3125 19.447 42.858 19.9091C43.411 20.3636 44.0928 20.5909 44.9034 20.5909Z" fill="#FF0A0A"/>
<path d="M132.349 24.3409C130.584 24.3409 129.058 23.9659 127.77 23.2159C126.49 22.4583 125.501 21.4053 124.804 20.0568C124.107 18.7008 123.759 17.1288 123.759 15.3409C123.759 13.5379 124.107 11.9621 124.804 10.6136C125.501 9.25758 126.49 8.20454 127.77 7.45454C129.058 6.69697 130.584 6.31818 132.349 6.31818C134.115 6.31818 135.637 6.69697 136.918 7.45454C138.205 8.20454 139.198 9.25758 139.895 10.6136C140.592 11.9621 140.94 13.5379 140.94 15.3409C140.94 17.1288 140.592 18.7008 139.895 20.0568C139.198 21.4053 138.205 22.4583 136.918 23.2159C135.637 23.9659 134.115 24.3409 132.349 24.3409ZM132.372 20.5909C133.175 20.5909 133.846 20.3636 134.384 19.9091C134.921 19.447 135.327 18.8182 135.599 18.0227C135.88 17.2273 136.02 16.322 136.02 15.3068C136.02 14.2917 135.88 13.3864 135.599 12.5909C135.327 11.7955 134.921 11.1667 134.384 10.7045C133.846 10.2424 133.175 10.0114 132.372 10.0114C131.562 10.0114 130.88 10.2424 130.327 10.7045C129.781 11.1667 129.368 11.7955 129.088 12.5909C128.815 13.3864 128.679 14.2917 128.679 15.3068C128.679 16.322 128.815 17.2273 129.088 18.0227C129.368 18.8182 129.781 19.447 130.327 19.9091C130.88 20.3636 131.562 20.5909 132.372 20.5909Z" fill="#FF0909"/>
</svg>
